<?xml version="1.0" encoding="iso-8859-1"?>
<!-- Generator: Adobe Illustrator 16.0.0, SVG Export Plug-In . SVG Version: 6.00 Build 0)  -->
<!DOCTYPE svg PUBLIC "-//W3C//DTD SVG 1.1//EN" "http://www.w3.org/Graphics/SVG/1.1/DTD/svg11.dtd">
<svg version="1.1" id="Capa_1" xmlns="http://www.w3.org/2000/svg" xmlns:xlink="http://www.w3.org/1999/xlink" x="0px" y="0px"
	 width="585.918px" height="585.918px" viewBox="0 0 585.918 585.918" style="enable-background:new 0 0 585.918 585.918;"
	 xml:space="preserve">
<g>
	<path d="M357.396,535.33c0.776,0.047,1.542,0.109,2.329,0.109h177.39c20.75,0,37.627-16.883,37.627-37.627V86.597
		c0-20.743-16.877-37.628-37.627-37.628h-177.39c-0.781,0-1.553,0.077-2.329,0.113V0L11.176,46.206v492.311l346.22,47.401V535.33z
		 M357.396,70.711c0.766-0.113,1.532-0.236,2.329-0.236h177.39c8.893,0,16.125,7.236,16.125,16.126v411.22
		c0,8.893-7.232,16.127-16.125,16.127h-177.39c-0.792,0-1.563-0.127-2.329-0.243V70.711z M63.135,312.229
		c4.375,0.079,9.251-0.904,12.139-2.127l2.212,12.756c-2.698,1.423-8.735,2.852-16.522,2.641
		c-21.66-0.582-32.559-15.836-32.559-35.653c0-23.728,14.926-37.31,33.973-37.793c7.515-0.2,13.282,1.365,15.883,2.795
		l-2.993,12.987c-2.984-1.343-7.097-2.56-12.231-2.473c-11.368,0.182-20.061,7.938-20.061,23.575
		C42.977,303.018,50.368,312.003,63.135,312.229z M129.758,326.277l-42.518-1.129v-72.558l15.158-0.378v59.413l27.36,0.452V326.277z
		 M183.491,327.693l-5.795-19.968l-21.125-0.288l-5.168,19.401l-16.732-0.441l21.9-75.539l21.898-0.549l23.593,77.867
		L183.491,327.693z M231.879,330.171c-9.11-0.252-18.018-2.839-22.426-5.411l3.591-14.678c4.79,2.541,12.202,5.134,19.916,5.266
		c8.402,0.151,12.874-3.238,12.874-8.505c0-5.033-3.876-7.941-13.585-11.447c-13.238-4.657-21.743-11.936-21.743-23.4
		c0-13.462,11.203-24.056,30.129-24.533c9.221-0.242,16.074,1.51,21.008,3.57l-4.199,14.937c-3.315-1.527-9.176-3.714-17.163-3.59
		c-7.919,0.128-11.73,3.745-11.73,7.89c0,5.098,4.538,7.312,14.982,11.191c14.531,5.257,21.459,12.759,21.459,24.282
		C264.998,319.442,254.258,330.786,231.879,330.171z M299.033,332.004c-9.922-0.268-19.597-2.986-24.387-5.669l3.908-15.309
		c5.197,2.646,13.25,5.365,21.654,5.514c9.145,0.168,14.016-3.371,14.016-8.872c0-5.25-4.22-8.268-14.805-11.947
		c-14.392-4.852-23.64-12.437-23.64-24.392c0-14.035,12.192-25.086,32.791-25.62c10.021-0.257,17.501,1.559,22.887,3.698
		l-4.583,15.599c-3.621-1.585-10.01-3.868-18.703-3.724c-8.614,0.134-12.756,3.908-12.756,8.229c0,5.313,4.939,7.635,16.305,11.672
		c15.816,5.488,23.386,13.326,23.386,25.353C335.097,320.843,323.39,332.672,299.033,332.004z"/>
	<path d="M166.897,263.578l-0.21,0.005c-1.092,4.556-2.184,10.362-3.381,14.803l-4.349,16.2l16.302,0.074l-4.627-16.324
		C169.309,273.785,167.999,268.103,166.897,263.578z"/>
	<path d="M437.28,270.699c0,0-11.674-22.502-11.243-38.938c0.315-11.753,26.809-23.362,37.218-40.231
		c10.374-16.871-1.302-33.299-1.302-33.299s2.604,12.115-4.313,24.651c-6.931,12.546-32.475,19.911-42.421,41.536
		C405.302,246.037,437.28,270.699,437.28,270.699z"/>
	<path d="M480.999,202.352c0,0-39.803,15.137-39.803,32.428c0,17.315,10.815,22.937,12.548,28.562
		c1.732,5.627-3.024,15.147-3.024,15.147s15.565-10.816,12.966-23.373c-2.603-12.547-14.72-16.444-7.78-28.979
		C460.535,217.735,480.999,202.352,480.999,202.352z"/>
	<path d="M432.977,293.557c41.061-1.459,45.901-9.199,50.186-12.908c-23.791,6.478-86.952,6.058-87.404,1.297
		c-0.419-4.758,19.466-8.651,19.466-8.651s-31.14,0-33.733,7.785C378.886,288.862,396.23,294.848,432.977,293.557z"/>
	<path d="M486.186,311.788c0,0,38.141-7.675,34.583-27.226c-4.316-23.798-31.561-10.396-31.561-10.396s17.742,0,19.466,10.811
		C510.406,295.793,486.186,311.788,486.186,311.788z"/>
	<path d="M445.933,305.306c-18.017,2.025-39.79,0.426-41.534-2.604c-1.699-3.028,3.045-4.756,3.045-4.756
		c-21.647,5.207-9.815,14.269,15.549,16.016c21.733,1.476,46.038-6.498,46.038-6.498l7.474-6.048
		C476.504,301.421,459.371,303.794,445.933,305.306z"/>
	<path d="M412.641,320.313c0,0-9.816,0.277-10.389,5.475c-0.562,5.167,3.045,7.79,27.317,7.214
		c28.894-0.693,33.706-4.127,36.685-6.631l7.059-5.308c-18.893,2.446-20.357,3.119-31.044,3.429
		c-10.772,0.315-29.628,0.997-30.488-1.014C410.908,321.458,412.641,320.313,412.641,320.313z"/>
	<path d="M428.505,357.229c51.905-0.006,74.698-9.528,78.436-13.551c3.749-4.041-1.164-7.217-1.164-7.217s1.731,2.016-0.546,4.32
		c-2.321,2.305-23.382,8.072-57.124,9.789c-33.744,1.744-70.374-3.158-71.529-7.49c-1.124-4.326,18.752-7.774,18.752-7.774
		c-2.306,0.288-29.986,0.861-30.867,8.372C363.61,351.17,376.577,357.229,428.505,357.229z"/>
	<path d="M486.751,360.688c-22.777,4.603-91.975,1.695-91.975,1.695s44.973,10.671,96.316,1.737
		c24.531-4.273,25.964-16.157,25.964-16.157S509.545,356.057,486.751,360.688z"/>
</g>
<g>
</g>
<g>
</g>
<g>
</g>
<g>
</g>
<g>
</g>
<g>
</g>
<g>
</g>
<g>
</g>
<g>
</g>
<g>
</g>
<g>
</g>
<g>
</g>
<g>
</g>
<g>
</g>
<g>
</g>
</svg>
