<?xml version="1.0" encoding="iso-8859-1"?>
<!-- Generator: Adobe Illustrator 19.0.0, SVG Export Plug-In . SVG Version: 6.00 Build 0)  -->
<svg version="1.1" id="Layer_1" xmlns="http://www.w3.org/2000/svg" xmlns:xlink="http://www.w3.org/1999/xlink" x="0px" y="0px"
	 viewBox="0 0 512.002 512.002" style="enable-background:new 0 0 512.002 512.002;" xml:space="preserve">
<g>
	<g>
		<path d="M437.108,74.898c-99.869-99.858-262.346-99.858-362.214,0c-99.858,99.858-99.858,262.339,0,362.203
			c49.934,49.929,115.521,74.896,181.107,74.896s131.173-24.967,181.107-74.896C536.966,337.243,536.966,174.762,437.108,74.898z
			 M136.484,384.209h-14.14c-9.223,0-16.707-7.478-16.707-16.707s7.484-16.707,16.707-16.707h14.14
			c23.266,0,43.301-15.861,48.729-38.484l42.247-175.959c9.05-37.706,42.453-64.008,81.23-64.008h14.14
			c9.223,0,16.707,7.478,16.707,16.707s-7.484,16.707-16.707,16.707h-14.14c-23.266,0-43.301,15.738-48.729,38.362l-42.247,176.02
			C208.664,357.845,175.26,384.209,136.484,384.209z M345.779,355.567c6.526,6.52,6.526,17.104,0,23.625
			c-3.263,3.263-7.538,4.895-11.812,4.895s-8.55-1.632-11.812-4.895l-21.602-21.602l-21.602,21.602
			c-3.263,3.263-7.538,4.895-11.812,4.895s-8.55-1.632-11.812-4.895c-6.526-6.52-6.526-17.104,0-23.625l21.602-21.602
			l-21.602-21.602c-6.526-6.52-6.526-17.104,0-23.625c6.526-6.526,17.099-6.526,23.625,0l21.602,21.602l21.602-21.602
			c6.526-6.526,17.099-6.526,23.625,0c6.526,6.52,6.526,17.104,0,23.625l-21.602,21.602L345.779,355.567z"/>
	</g>
</g>
<g>
</g>
<g>
</g>
<g>
</g>
<g>
</g>
<g>
</g>
<g>
</g>
<g>
</g>
<g>
</g>
<g>
</g>
<g>
</g>
<g>
</g>
<g>
</g>
<g>
</g>
<g>
</g>
<g>
</g>
</svg>
