<?xml version="1.0" encoding="iso-8859-1"?>
<!-- Generator: Adobe Illustrator 19.0.0, SVG Export Plug-In . SVG Version: 6.00 Build 0)  -->
<svg version="1.1" id="Layer_1" xmlns="http://www.w3.org/2000/svg" xmlns:xlink="http://www.w3.org/1999/xlink" x="0px" y="0px"
	 viewBox="0 0 512 512" style="enable-background:new 0 0 512 512;" xml:space="preserve">
<g>
	<g>
		<path d="M491.842,156.429c-19.471-45.945-51.935-85.013-92.785-112.638C358.221,16.167,308.896-0.007,256,0
			c-35.255-0.002-68.948,7.181-99.573,20.159C110.48,39.631,71.414,72.096,43.79,112.945C16.166,153.783-0.007,203.107,0,256
			c-0.002,35.253,7.18,68.946,20.158,99.571c19.471,45.945,51.935,85.013,92.785,112.638C153.78,495.834,203.106,512.007,256,512
			c35.255,0.002,68.948-7.181,99.573-20.159c45.946-19.471,85.013-51.937,112.637-92.786C495.834,358.217,512.007,308.893,512,256
			C512.002,220.746,504.82,187.054,491.842,156.429z M460.413,342.255c-16.851,39.781-45.044,73.724-80.475,97.677
			c-35.443,23.953-78.02,37.927-123.938,37.934c-30.62-0.002-59.731-6.219-86.257-17.454
			c-39.781-16.851-73.723-45.045-97.676-80.476C48.113,344.493,34.14,301.915,34.133,256c0.002-30.619,6.218-59.729,17.454-86.255
			c16.85-39.781,45.044-73.724,80.475-97.677C167.505,48.113,210.083,34.14,256,34.133c30.62,0.002,59.731,6.219,86.257,17.454
			c39.781,16.851,73.723,45.045,97.676,80.476c23.953,35.443,37.926,78.02,37.933,123.937
			C477.864,286.619,471.649,315.729,460.413,342.255z"/>
	</g>
</g>
<g>
	<g>
		<path d="M322.797,72.308h-14.134c-19.28-0.003-37.373,6.627-51.694,17.927c-7.167,5.651-13.414,12.476-18.435,20.242
			c-5.021,7.764-8.814,16.476-11.062,25.842l-42.217,175.905c-1.357,5.651-3.625,10.849-6.632,15.501
			c-4.509,6.976-10.698,12.715-17.921,16.696c-7.229,3.98-15.45,6.207-24.163,6.209h-14.134c-9.222,0-16.699,7.477-16.699,16.699
			c0,9.222,7.477,16.699,16.699,16.699h14.134c19.28,0.003,37.373-6.627,51.694-17.927c7.167-5.651,13.414-12.475,18.435-20.242
			c5.021-7.764,8.814-16.476,11.062-25.842l42.217-175.905c1.357-5.651,3.625-10.849,6.632-15.501
			c4.509-6.976,10.698-12.715,17.921-16.696c7.229-3.98,15.45-6.209,24.163-6.209h14.134c9.222,0,16.699-7.477,16.699-16.699
			C339.496,79.785,332.02,72.308,322.797,72.308z"/>
	</g>
</g>
<g>
	<g>
		<path d="M324.148,333.929l21.59-21.59c6.522-6.522,6.522-17.094,0-23.616c-6.521-6.521-17.094-6.521-23.616,0l-21.59,21.59
			l-21.59-21.59c-6.522-6.522-17.094-6.522-23.616,0c-6.522,6.522-6.522,17.095,0,23.616l21.59,21.59l-21.59,21.59
			c-6.522,6.522-6.522,17.094,0,23.616c6.522,6.522,17.095,6.522,23.616,0l21.59-21.59l21.59,21.59
			c6.522,6.522,17.095,6.522,23.616,0c6.522-6.522,6.522-17.095,0-23.616L324.148,333.929z"/>
	</g>
</g>
<g>
</g>
<g>
</g>
<g>
</g>
<g>
</g>
<g>
</g>
<g>
</g>
<g>
</g>
<g>
</g>
<g>
</g>
<g>
</g>
<g>
</g>
<g>
</g>
<g>
</g>
<g>
</g>
<g>
</g>
</svg>
